<svg version="1.1" id="Marca_-_Vetores" xmlns="http://www.w3.org/2000/svg" x="0" y="0" viewBox="0 0 4062.6 400" xml:space="preserve"><style>.st0{fill:#fff}</style><path class="st0" d="M618.1 62.4c-9.1-5.4-19.7-8.1-31.6-8.1-23.8-.4-45.9 12.2-57.7 32.9-6 10.4-9 22.2-8.8 34.2 0 12.9 3 24.3 9 34.5 5.9 10 14.3 18.3 24.4 24 10.6 6 22.6 9 34.8 8.8 9.8.1 19.6-1.9 28.6-5.7 8.8-3.7 16.5-9.3 22.7-16.6l-15.7-16c-4.2 5-9.6 8.9-15.6 11.4-6.3 2.6-13.1 3.9-20 3.8-8 .2-16-1.8-23.1-5.6-6.6-3.6-12-9.1-15.5-15.7-2.3-4.3-3.8-8.9-4.6-13.7h101c.5-2.4.9-4.8 1.1-7.2.2-2.1.3-4 .3-5.8 0-12.1-2.6-23-7.7-32.6-5-9.4-12.5-17.2-21.6-22.6zM564 82.3c6.7-3.7 14.3-5.6 22-5.4 8 0 14.7 1.7 20.4 5 5.6 3.4 10.1 8.3 13 14.1 2.2 4.5 3.6 9.3 4.1 14.3H545c.8-4.4 2.2-8.8 4.3-12.8 3.3-6.4 8.4-11.7 14.7-15.2zm302.3-5.2c4.4 7.2 6.6 15.9 6.7 26.1V186h-24.7v-77.9c0-9.6-2.9-17.1-8.8-22.7-5.9-5.5-13.2-8.3-21.9-8.3-5.6-.1-11.2 1.2-16.2 3.8-4.7 2.5-8.7 6.1-11.5 10.6-3 4.9-4.5 10.6-4.3 16.3V186h-24.4v-77.9c0-9.6-2.9-17.1-8.8-22.7-5.9-5.5-13.3-8.3-22.1-8.3-5.6-.1-11.1 1.2-16 3.8-4.7 2.5-8.6 6.1-11.4 10.6-3 4.9-4.5 10.6-4.3 16.3V186h-24.4V57h24.4v15c3.8-4.8 8.5-8.7 13.8-11.6 15.5-8.1 34-8.1 49.5-.1 7.2 3.9 13.3 9.7 17.4 16.8.1.2.2.4.3.5.1-.1.2-.3.3-.4 4.7-7.1 11.1-12.9 18.6-16.8 7.7-4.1 16.3-6.2 25-6.1 8.8-.1 17.5 1.9 25.2 6 7.1 3.9 13.3 9.7 17.6 16.8zm139.5-13.8c-9.6-6-20.6-9.1-31.9-9-9.1-.1-18.1 2-26.2 6.1-6.8 3.4-12.6 8.3-17.2 14.4V57h-24.4v183h24.4v-71.7c4.5 6 10.3 10.9 17 14.3 8.2 4.1 17.3 6.2 26.5 6.1 11.3.1 22.3-2.9 31.9-8.8 9.5-5.9 17.2-14.2 22.4-24 5.4-10.1 8.1-21.5 8.1-34.2 0-12.7-2.7-24.1-8.1-34.2-5.3-10-13-18.3-22.5-24.2zm.2 81c-3.4 6.4-8.5 11.8-14.7 15.6-13.2 7.6-29.5 7.6-42.8 0-6.2-3.7-11.2-9.1-14.4-15.6-3.5-7.1-5.2-14.8-5-22.7-.2-8 1.6-15.9 5.2-23.1 3.2-6.5 8.2-11.9 14.4-15.6 6.5-3.8 13.9-5.7 21.4-5.6 15-.4 28.9 7.8 35.8 21.2 3.7 7 5.6 14.9 5.4 22.8.3 8-1.6 15.9-5.3 23zm58.3-87.3h24.4v129h-24.4V57zm23.4-52.5c2.9 2.9 4.4 6.9 4.3 11 .1 4.2-1.4 8.3-4.3 11.3-6.2 6-16 6-22.3 0-2.9-3-4.5-7.1-4.3-11.3-.1-4.1 1.5-8.1 4.3-11 6.2-6 16.1-6 22.3 0zM1216.6 69l-16 16.6c-2.5-2.7-5.5-4.9-9-6.2-3.7-1.3-7.5-2-11.4-1.9-9.1 0-16.5 2.9-22.3 8.7-5.8 5.8-8.7 14.6-8.7 26.3V186h-24.4V57h24.4v15c.7-1.1 1.4-2.1 2.2-3.1 7.6-9.8 18.6-14.7 32.9-14.7 6.1-.1 12.1 1.1 17.6 3.4 5.8 2.7 10.8 6.5 14.7 11.4zm40.8-64.5c2.9 2.9 4.4 6.9 4.3 11 .1 4.2-1.4 8.3-4.3 11.3-6.2 6-16 6-22.3 0-2.9-3-4.5-7.1-4.3-11.3-.1-4.1 1.5-8.1 4.3-11 6.2-6 16.1-6 22.3 0zM1234 57h24.4v129H1234V57zm82.8 41.8c-3.7 6.9-5.6 14.7-5.4 22.5-.2 7.9 1.7 15.6 5.4 22.5 3.5 6.4 8.7 11.7 14.9 15.5 6.6 3.9 14.1 5.8 21.7 5.7 6.5.1 12.9-1.2 18.9-3.7 5.7-2.4 10.7-6.1 14.8-10.7l16 16.3c-6 6.9-13.5 12.4-21.9 16-8.8 3.8-18.3 5.8-27.8 5.7-12 .2-23.9-2.9-34.3-9-10.1-5.8-18.4-14.2-24.2-24.3-5.9-10.4-9-22.1-8.8-34.1-.2-12 2.9-23.8 8.8-34.2 5.8-10 14.1-18.3 24.2-24 10.5-5.9 22.3-9 34.3-8.8 9.5-.1 18.9 1.8 27.7 5.6 8.4 3.7 16 9.2 22 16.2l-16.3 16.3c-3.9-4.7-8.9-8.3-14.5-10.7-6-2.5-12.4-3.7-18.9-3.7-7.6-.1-15.1 1.8-21.7 5.6-6.2 3.6-11.4 8.9-14.9 15.3zM1510.1 57h24.4v74.9c0 11.2-2.4 21.1-7.1 29.6-4.5 8.3-11.2 15.2-19.4 20-8.2 4.8-17.8 7.2-28.6 7.2-10 .2-19.9-2.3-28.6-7.2-8.3-4.7-15.1-11.6-19.7-20-4.7-8.5-7.1-18.4-7.1-29.6V57h24.4v73.8c-.2 6.3 1.1 12.6 3.7 18.3 2.3 5 6 9.1 10.7 11.8 5.1 2.8 10.8 4.2 16.6 4.1 9.6 0 17.1-3 22.5-9.1 5.4-6.1 8.1-14.4 8.1-25.1V57zm140.8 73c3.3 4.9 5 11.3 5 19.3 0 12.1-4.3 21.7-12.9 28.8-8.6 7.1-20.1 10.6-34.6 10.6-6.9 0-13.8-.9-20.5-2.9-6.3-1.8-12.3-4.6-17.8-8.1-5.3-3.4-10.1-7.7-14.1-12.6l15.7-15.7c4.3 5.5 9.9 9.9 16.3 12.9 6.5 2.9 13.5 4.3 20.6 4.2 7.6 0 13.5-1.3 17.6-3.9 3.9-2.2 6.3-6.5 6.2-11 0-4.7-1.7-8.4-5-11-3.9-2.9-8.3-5.1-12.9-6.5-5.3-1.7-10.8-3.4-16.7-5.2-5.8-1.7-11.4-3.9-16.7-6.7-5.1-2.6-9.6-6.4-12.9-11.1-3.4-4.7-5-10.9-5-18.7-.2-7.2 1.8-14.2 5.7-20.2 3.9-5.8 9.4-10.4 15.9-13.2 6.8-3.1 15-4.6 24.6-4.6 10.1 0 19.1 1.8 27 5.3 7.8 3.5 14.5 8.9 19.4 15.9l-15.7 15.7c-3.5-4.6-8.2-8.4-13.4-10.9-5.7-2.6-11.8-3.9-18.1-3.8-7.1 0-12.4 1.2-16.2 3.7-5.7 3.8-7.3 11.5-3.5 17.2.8 1.2 1.7 2.2 2.8 3 3.9 2.7 8.3 4.7 12.9 6 5.3 1.6 10.9 3.3 16.7 5 5.8 1.7 11.3 4 16.6 6.9 5.3 2.8 9.7 6.8 13 11.6zM559.4 327.3h39.2v1.6c0 9.3-1.6 17.1-4.9 23.3-3 6-7.7 10.9-13.6 14.1-6.1 3.2-13 4.9-19.9 4.7-10.7.1-21.1-4.3-28.5-12-15.8-16.3-15.8-42.2.1-58.4 3.7-3.8 8.1-6.7 13-8.8 5.1-2.1 10.6-3.2 16.2-3.1 6.1-.1 12.1 1.2 17.6 3.7 5.3 2.4 9.9 6 13.5 10.6l-7.5 7.5c-2.5-3.7-6-6.6-10-8.5-4.3-2-8.9-3-13.6-2.9-5.4-.1-10.8 1.2-15.5 3.9-4.4 2.6-8.1 6.3-10.5 10.8-5 10.1-5 21.9.1 31.9 2.4 4.5 5.9 8.2 10.3 10.8 4.5 2.7 9.6 4 14.8 3.9 5.1.1 10.1-1 14.6-3.2 4.1-2.1 7.4-5.4 9.5-9.5 1.7-3.3 2.7-6.9 3.1-10.7h-27.8v-9.7zm73.8 6.5h38.6v-9.5h-38.6v-24.4H675V290h-52.7v80h53.3v-9.9h-42.4v-26.3zm105.9-2.6c-2.3-1.8-4.9-3.3-7.6-4.4-2.8-1.2-5.6-2.2-8.4-3.2-2.6-.9-5.2-1.9-7.7-3.2-2.1-1-4-2.4-5.6-4.2-1.5-1.8-2.2-4.2-2.1-6.5-.1-3.1 1.3-6.1 3.8-7.9 2.5-1.9 6-2.8 10.3-2.8 3.3-.1 6.5.6 9.4 2.1 2.9 1.6 5.5 3.7 7.7 6.2l7.4-7.4c-2.7-3.4-6.2-6.1-10.1-8-4.4-2.1-9.2-3.1-14.1-3.1-4.4-.1-8.8.8-12.9 2.6-3.6 1.6-6.7 4.1-9 7.4-2.3 3.4-3.4 7.5-3.3 11.6-.1 3.5.6 7 2.1 10.1 1.3 2.6 3.2 4.8 5.6 6.5 2.4 1.7 4.9 3.1 7.6 4.1 2.8 1.1 5.5 2.2 8.3 3.1 2.6.9 5.2 2 7.7 3.2 2.2 1.1 4.1 2.6 5.6 4.6 1.5 2.1 2.2 4.7 2.1 7.3.1 3.4-1.5 6.6-4.3 8.5-2.9 2.1-6.7 3.1-11.5 3.1-4.2.1-8.4-.8-12.2-2.7-3.5-2-6.5-4.7-8.8-8l-7.4 7.4c3.2 4.2 7.2 7.6 11.9 10 5 2.4 10.6 3.6 16.1 3.5 8.3 0 14.9-2 19.8-6s7.3-9.5 7.3-16.6c.1-3.6-.6-7.2-2.1-10.5-1.3-2.7-3.2-5-5.6-6.8zm21.9-31.3h27.2V370H799v-70.1h27.1V290H761v9.9zm93.6-22.6c1.4-.8 3-1.1 4.6-1 1.8 0 3.6.4 5.2 1.3 1.5.8 3.2 1.7 4.9 2.7 1.9 1 4.1 1.4 6.3 1.4 2.6.1 5.2-.7 7.3-2.1 2.2-1.6 4.3-3.5 6.1-5.6l-5.6-5.5c-.9 1.3-2 2.3-3.2 3.2-1.4.8-3 1.2-4.6 1.1-1.7 0-3.5-.5-5-1.4-1.5-.9-3.2-1.8-5-2.7-2-.9-4.2-1.3-6.5-1.3-2.6-.1-5.3.6-7.5 2.1-2.3 1.5-4.3 3.4-6 5.5l5.6 5.5c1-1.3 2.2-2.4 3.4-3.2zm16.8 12.7l32.6 80h-11.8l-7.2-18.1h-35.5l-7.2 18.1h-11.5l32.7-80h7.9zm9.9 52.4l-13.9-35.1-14 35.1h27.9zM996.8 330c.1 10.9-4.1 21.3-11.7 29.2-15.5 15.8-40.8 16.1-56.6.7l-.7-.7c-3.7-3.8-6.6-8.3-8.6-13.2-4.1-10.3-4.1-21.8 0-32.1 2-4.9 4.9-9.3 8.5-13.1 3.6-3.8 8-6.7 12.8-8.8 10.2-4.1 21.5-4.1 31.7 0 4.8 2 9.2 5 12.9 8.8 3.7 3.8 6.6 8.2 8.6 13.1 2.1 5.1 3.1 10.6 3.1 16.1zm-11.2-.1c0-4.2-.7-8.4-2.2-12.3-1.4-3.6-3.5-6.9-6.1-9.7-2.6-2.8-5.7-4.9-9.2-6.4-3.7-1.5-7.7-2.3-11.8-2.2-5.3-.1-10.5 1.2-15 3.9-4.3 2.6-7.9 6.4-10.3 10.8-2.6 4.9-3.9 10.4-3.7 15.9 0 4.2.7 8.4 2.1 12.4 1.3 3.6 3.4 7 6 9.8 2.6 2.7 5.7 4.9 9.2 6.4 3.7 1.6 7.7 2.3 11.7 2.3 10.6.3 20.5-5.5 25.5-14.9 2.6-5 3.9-10.5 3.8-16zM340 0H60C26.9 0 0 26.9 0 60v280c0 33.1 26.9 60 60 60h280c33.1 0 60-26.9 60-60V60c0-33.1-26.9-60-60-60zM200 340c-77.3 0-140-62.7-140-140S122.7 60 200 60c45.7 0 88.5 22.3 114.7 59.7l-32.8 23c-31.7-45.3-94-56.3-139.3-24.6s-56.3 94-24.6 139.3 94 56.3 139.3 24.6c9.6-6.7 17.9-15 24.6-24.6l32.8 23c-26.2 37.3-69 59.6-114.7 59.6zm138.6-120H161.4c-1.9-13.3-1.9-26.7 0-40h177.1c2 13.3 2 26.7.1 40z"/><g><path class="st0" d="M2118 252.9c-10.6 0-20.1-2.4-28.5-7.1-8.3-4.7-14.9-11.2-19.7-19.4-4.8-8.2-7.2-17.5-7.2-27.9v-82.9h26.3v83.6c0 6 1.3 11.2 3.8 15.6 2.6 4.4 6 7.7 10.4 10.1 4.4 2.4 9.3 3.6 14.8 3.6s10.3-1.2 14.5-3.6c4.2-2.4 7.5-5.7 10-10.1 2.5-4.4 3.7-9.5 3.7-15.4v-83.8h26.3v83c0 10.4-2.3 19.6-7 27.8-4.7 8.1-11.1 14.6-19.3 19.3-8 4.9-17.5 7.2-28.1 7.2zM2195.7 250.8V158h25.2v92.8h-25.2zm60.3 0V196c0-5.4-1.7-9.6-5-12.6s-7.5-4.5-12.5-4.5c-3.3 0-6.3.7-8.9 2-2.6 1.3-4.7 3.3-6.3 5.9-1.6 2.6-2.4 5.7-2.4 9.4l-9.8-5c0-7.2 1.6-13.4 4.7-18.6 3.1-5.3 7.4-9.3 12.8-12.2 5.4-2.9 11.5-4.3 18.3-4.3 6.4 0 12.2 1.4 17.5 4.3 5.3 2.9 9.4 6.9 12.5 12.1 3.1 5.2 4.6 11.4 4.6 18.6v59.8H2256zm60.6 0V196c0-5.4-1.7-9.6-5-12.6s-7.4-4.5-12.3-4.5c-3.5 0-6.5.7-9.1 2-2.6 1.3-4.7 3.3-6.3 5.9-1.6 2.6-2.4 5.7-2.4 9.4l-14.4-3.7c.4-7.6 2.3-14 5.9-19.4 3.5-5.4 8.1-9.6 13.7-12.6s11.9-4.5 18.8-4.5 13.1 1.4 18.6 4.3c5.5 2.9 9.9 7 13.2 12.4 3.3 5.4 4.9 11.9 4.9 19.4v58.6h-25.6zM2401 252.8c-8.5 0-16.1-2.1-22.8-6.3s-12-10-15.9-17.3c-3.8-7.3-5.8-15.5-5.8-24.6 0-9.2 1.9-17.5 5.8-24.8 3.8-7.3 9.1-13.1 15.9-17.3 6.7-4.2 14.4-6.3 23-6.3 6.5 0 12.4 1.3 17.7 4 5.3 2.7 9.5 6.4 12.7 11.1 3.2 4.7 4.9 10.2 5.2 16.3v33.6c-.3 6-2 11.4-5.1 16.2-3.1 4.8-7.4 8.6-12.7 11.2-5.4 2.8-11.4 4.2-18 4.2zm4.8-23.3c7 0 12.8-2.4 17.1-7.1 4.4-4.7 6.5-10.7 6.5-17.9 0-4.9-1-9.2-3.1-13.1-2.1-3.8-4.8-6.8-8.3-8.9-3.5-2.1-7.6-3.2-12.3-3.2-4.6 0-8.7 1.1-12.2 3.3-3.5 2.2-6.3 5.1-8.3 8.8-2 3.7-3 8-3 12.9 0 5 1 9.4 3 13.1 2 3.7 4.8 6.7 8.4 8.8 3.7 2.2 7.7 3.3 12.2 3.3zm22.1 21.3v-25l4.2-22.7-4.2-22.5V158h25.4v92.8h-25.4zM2551.3 252.8c-8.5 0-16.1-2.1-22.8-6.3-6.7-4.2-12-10-15.9-17.3s-5.8-15.5-5.8-24.6c0-9.2 1.9-17.5 5.8-24.8 3.8-7.3 9.1-13.1 15.9-17.3 6.7-4.2 14.4-6.3 23-6.3 6.5 0 12.4 1.3 17.7 4 5.3 2.7 9.5 6.4 12.7 11.1 3.2 4.7 4.9 10.2 5.2 16.3v33.6c-.3 6-2 11.4-5.1 16.2-3.1 4.8-7.4 8.6-12.7 11.2-5.3 2.8-11.3 4.2-18 4.2zm4.8-23.3c7 0 12.8-2.4 17.1-7.1 4.4-4.7 6.5-10.7 6.5-17.9 0-4.9-1-9.2-3.1-13.1-2.1-3.8-4.8-6.8-8.3-8.9-3.5-2.1-7.6-3.2-12.3-3.2-4.6 0-8.7 1.1-12.2 3.3-3.5 2.2-6.3 5.1-8.3 8.8-2 3.7-3 8-3 12.9 0 5 1 9.4 3 13.1 2 3.7 4.8 6.7 8.4 8.8 3.7 2.2 7.7 3.3 12.2 3.3zm22.1 21.3v-25l4.2-22.7-4.2-22.5V158h25.4v92.8h-25.4zM2657.6 252.9c-5.4 0-10.6-.7-15.7-2s-9.7-3.3-13.9-6c-4.2-2.6-7.9-5.7-11-9.3l15.2-15.2c3.1 3.7 6.7 6.5 11 8.3 4.2 1.8 8.8 2.7 13.8 2.7 4.1 0 7.2-.6 9.4-1.8 2.2-1.2 3.3-2.9 3.3-5.1 0-2.6-1.2-4.5-3.5-5.9-2.3-1.3-5.2-2.5-8.7-3.6-3.5-1-7.3-2.1-11.2-3.3-4-1.2-7.7-2.7-11.2-4.7-3.5-2-6.4-4.8-8.7-8.4-2.3-3.6-3.5-8.2-3.5-13.8 0-5.9 1.5-11.1 4.4-15.5 2.9-4.4 7.1-7.8 12.5-10.2 5.4-2.4 11.7-3.6 19-3.6 7.7 0 14.6 1.3 20.9 3.9 6.2 2.6 11.4 6.6 15.5 12l-15.2 15.4c-2.8-3.3-6-5.8-9.5-7.4-3.5-1.6-7.3-2.4-11.2-2.4-3.8 0-6.7.6-8.7 1.7-1.9 1.2-2.9 2.8-2.9 4.8 0 2.3 1.1 4.1 3.3 5.3 2.2 1.2 5.1 2.3 8.7 3.4 3.6 1 7.3 2.1 11.2 3.4 3.9 1.2 7.6 2.9 11.1 5.1 3.5 2.2 6.4 5.1 8.7 8.7 2.2 3.6 3.4 8.2 3.4 13.8 0 9.1-3.3 16.3-9.8 21.6-6.7 5.5-15.5 8.1-26.7 8.1zM2743 252.9c-5.4 0-10.6-.7-15.7-2s-9.7-3.3-13.9-6c-4.2-2.6-7.9-5.7-11-9.3l15.2-15.2c3.1 3.7 6.7 6.5 11 8.3 4.2 1.8 8.8 2.7 13.8 2.7 4.1 0 7.2-.6 9.4-1.8 2.2-1.2 3.3-2.9 3.3-5.1 0-2.6-1.2-4.5-3.5-5.9-2.3-1.3-5.2-2.5-8.7-3.6-3.5-1-7.3-2.1-11.2-3.3-4-1.2-7.7-2.7-11.2-4.7-3.5-2-6.4-4.8-8.7-8.4-2.3-3.6-3.5-8.2-3.5-13.8 0-5.9 1.5-11.1 4.4-15.5 2.9-4.4 7.1-7.8 12.5-10.2 5.4-2.4 11.7-3.6 19-3.6 7.7 0 14.6 1.3 20.9 3.9 6.2 2.6 11.4 6.6 15.5 12l-15.2 15.4c-2.8-3.3-6-5.8-9.5-7.4-3.5-1.6-7.3-2.4-11.2-2.4-3.8 0-6.7.6-8.7 1.7-1.9 1.2-2.9 2.8-2.9 4.8 0 2.3 1.1 4.1 3.3 5.3 2.2 1.2 5.1 2.3 8.7 3.4 3.6 1 7.3 2.1 11.2 3.4 3.9 1.2 7.6 2.9 11.1 5.1 3.5 2.2 6.4 5.1 8.7 8.7 2.2 3.6 3.4 8.2 3.4 13.8 0 9.1-3.3 16.3-9.8 21.6-6.8 5.5-15.6 8.1-26.7 8.1zM2840.6 252.9c-9.7 0-18.4-2.1-26-6.3-7.6-4.2-13.6-10-18-17.3-4.4-7.3-6.5-15.6-6.5-25 0-9.2 2.1-17.5 6.4-24.8 4.3-7.3 10.2-13.1 17.6-17.3 7.4-4.2 15.8-6.3 25-6.3 8.7 0 16.5 2 23.5 6 6.9 4 12.3 9.5 16.1 16.5 3.8 7 5.8 15.1 5.8 24 0 1.7-.1 3.4-.2 5.1-.1 1.7-.5 3.6-1 5.7l-78.2.2v-18.8l66.5-.2-10.4 7.9c-.1-5.5-1.1-10.1-2.9-13.8-1.8-3.7-4.3-6.5-7.5-8.5-3.2-1.9-7.2-2.9-11.9-2.9-5 0-9.4 1.1-13.1 3.3-3.7 2.2-6.6 5.3-8.6 9.3-2 4-3 8.8-3 14.3 0 5.6 1.1 10.5 3.2 14.7 2.1 4.2 5.2 7.3 9.1 9.5 4 2.2 8.6 3.3 13.8 3.3 4.7 0 9-.8 12.9-2.3s7.2-4 10-7.3l15 15c-4.7 5.4-10.3 9.4-16.7 12.1-6.3 2.6-13.3 3.9-20.9 3.9zM2890 180.1V158h68.6v22.1H2890zm21.7 70.7V119.3h25.2v131.5h-25.2zM3013 250.8V115.7h26v135.1h-26zm19.3 0v-21.3h35.4c6.2 0 11-1.9 14.5-5.8 3.5-3.8 5.3-8.4 5.3-13.6 0-3.6-.8-6.8-2.3-9.7-1.5-2.9-3.8-5.2-6.9-7-3.1-1.8-6.7-2.7-11-2.7h-35v-21.1h32.1c5.5 0 9.9-1.3 13.1-4 3.2-2.7 4.8-6.7 4.8-12.1 0-5.5-1.6-9.6-4.9-12.3-3.3-2.7-7.5-4-12.8-4h-32.3v-21.3h35.6c8.8 0 16.3 1.6 22.3 4.9 6 3.3 10.6 7.6 13.7 12.9 3.1 5.3 4.7 11.1 4.7 17.4 0 7.7-2.3 14.3-7 19.9-4.7 5.6-11.6 9.8-20.7 12.6l1.2-8.7c10.1 2.8 17.9 7.5 23.5 13.9 5.5 6.5 8.3 14.3 8.3 23.4 0 7.2-1.8 13.7-5.4 19.5-3.6 5.8-8.7 10.5-15.5 14-6.7 3.5-14.8 5.3-24.3 5.3h-36.4zM3121.5 139v-23.3H3234V139h-112.5zm43 111.8V118.6h26.3v132.3h-26.3zM3306.4 252.9c-9.5 0-18.4-1.8-26.8-5.4-8.4-3.6-15.8-8.6-22.1-15-6.3-6.4-11.3-13.8-14.9-22.3-3.6-8.5-5.4-17.6-5.4-27.3s1.8-18.8 5.5-27.2c3.7-8.4 8.7-15.8 15.1-22.1 6.4-6.3 13.9-11.2 22.5-14.7s17.9-5.2 27.9-5.2c11.1 0 21.4 2.1 30.7 6.2s17.1 9.9 23.4 17.5l-17.9 17.9c-4.1-5.6-9.3-9.9-15.6-12.9-6.3-2.9-13.2-4.4-20.8-4.4-8.6 0-16.2 1.9-22.8 5.7-6.6 3.8-11.8 9.1-15.5 15.9-3.7 6.8-5.6 14.6-5.6 23.5 0 9.1 1.9 17 5.6 23.8 3.7 6.8 8.7 12.1 15.1 15.9 6.3 3.8 13.5 5.7 21.4 5.7 8.6 0 15.9-1.5 21.9-4.6 6-3.1 10.6-7.7 13.8-13.7 3.2-6.1 4.8-13.6 4.8-22.4l17.1 11.9-59.2-.6V176h69v3.8c0 16.1-2.9 29.7-8.7 40.6-5.8 10.9-13.7 19.1-23.8 24.5-10 5.3-21.6 8-34.7 8zM3431.2 250.8V115.7h26.1v135.1h-26.1zm19.2-50v-21.3h31.3c4.1 0 7.8-.9 11.1-2.6 3.3-1.7 5.9-4.2 7.8-7.3 1.9-3.1 2.8-7 2.8-11.4s-.9-8.1-2.8-11.2c-1.9-3.1-4.5-5.6-7.8-7.3-3.3-1.7-7-2.6-11.1-2.6h-31.3v-21.3h34c8.6 0 16.3 1.7 23.2 5.2 6.9 3.5 12.3 8.4 16.2 14.7 4 6.3 6 13.9 6 22.6 0 8.7-2 16.3-6 22.7-4 6.4-9.4 11.3-16.2 14.8-6.9 3.5-14.6 5.2-23.2 5.2h-34zM3581.3 252.8c-8.5 0-16.1-2.1-22.8-6.3s-12-10-15.9-17.3-5.8-15.5-5.8-24.6c0-9.2 1.9-17.5 5.8-24.8 3.8-7.3 9.1-13.1 15.9-17.3 6.7-4.2 14.4-6.3 23-6.3 6.5 0 12.4 1.3 17.7 4 5.3 2.7 9.5 6.4 12.7 11.1 3.2 4.7 4.9 10.2 5.2 16.3v33.6c-.3 6-2 11.4-5.1 16.2-3.1 4.8-7.4 8.6-12.7 11.2-5.4 2.8-11.3 4.2-18 4.2zm4.8-23.3c7 0 12.8-2.4 17.1-7.1 4.4-4.7 6.5-10.7 6.5-17.9 0-4.9-1-9.2-3.1-13.1-2.1-3.8-4.8-6.8-8.3-8.9-3.5-2.1-7.6-3.2-12.3-3.2-4.6 0-8.7 1.1-12.2 3.3-3.5 2.2-6.3 5.1-8.3 8.8-2 3.7-3 8-3 12.9 0 5 1 9.4 3 13.1 2 3.7 4.8 6.7 8.4 8.8 3.7 2.2 7.7 3.3 12.2 3.3zm22.1 21.3v-25l4.2-22.7-4.2-22.5V158h25.4v92.8h-25.4zM3699.1 252.9c-9.4 0-17.8-2.1-25.4-6.4-7.6-4.3-13.5-10.1-17.9-17.5-4.4-7.4-6.5-15.5-6.5-24.5 0-9.2 2.2-17.5 6.5-24.9 4.4-7.4 10.3-13.2 17.9-17.4 7.6-4.2 16.1-6.3 25.6-6.3 7.3 0 14 1.3 20.2 3.9 6.2 2.6 11.5 6.5 16.1 11.6l-16.5 16.5c-2.3-2.8-5.2-4.9-8.6-6.3-3.4-1.4-7.1-2.1-11.2-2.1-4.6 0-8.7 1.1-12.4 3.2-3.7 2.1-6.5 5-8.6 8.7-2.1 3.7-3.1 8-3.1 12.9s1 9.2 3.1 12.9c2 3.7 4.9 6.7 8.6 8.8 3.7 2.2 7.8 3.3 12.4 3.3 4.2 0 8-.7 11.3-2.2 3.3-1.5 6.3-3.6 8.8-6.4l16.1 16.3c-4.5 5.1-9.8 9.1-16.1 11.8-6 2.8-12.8 4.1-20.3 4.1zM3740.3 180.1V158h68.6v22.1h-68.6zm21.7 70.7V119.3h25.2v131.5H3762zM3862.7 252.6c-8.1 0-15.3-1.7-21.7-5.1-6.4-3.4-11.4-8.2-15-14.3-3.6-6.2-5.4-13.3-5.4-21.3V158h25.4v53.2c0 3.8.6 7.1 1.9 9.9 1.3 2.8 3.2 4.8 5.8 6.2 2.6 1.4 5.6 2.1 9 2.1 5.3 0 9.4-1.6 12.3-4.8 2.9-3.2 4.4-7.7 4.4-13.5V158h25.2v53.8c0 8.1-1.8 15.2-5.4 21.3-3.6 6.2-8.6 10.9-14.9 14.3-6.3 3.5-13.5 5.2-21.6 5.2zM3963.3 252.8c-8.5 0-16.1-2.1-22.8-6.3s-12-10-15.9-17.3c-3.8-7.3-5.8-15.5-5.8-24.6 0-9.2 1.9-17.5 5.8-24.8 3.8-7.3 9.1-13.1 15.9-17.3 6.7-4.2 14.4-6.3 23-6.3 6.5 0 12.4 1.3 17.7 4 5.3 2.7 9.5 6.4 12.7 11.1 3.2 4.7 4.9 10.2 5.2 16.3v33.6c-.3 6-2 11.4-5.1 16.2-3.1 4.8-7.4 8.6-12.7 11.2-5.4 2.8-11.4 4.2-18 4.2zm4.8-23.3c7 0 12.8-2.4 17.1-7.1 4.4-4.7 6.5-10.7 6.5-17.9 0-4.9-1-9.2-3.1-13.1-2.1-3.8-4.8-6.8-8.3-8.9-3.5-2.1-7.6-3.2-12.3-3.2-4.6 0-8.7 1.1-12.2 3.3-3.5 2.2-6.3 5.1-8.3 8.8-2 3.7-3 8-3 12.9 0 5 1 9.4 3 13.1 2 3.7 4.8 6.7 8.4 8.8 3.6 2.2 7.7 3.3 12.2 3.3zm22.1 21.3v-25l4.2-22.7-4.2-22.5V158h25.4v92.8h-25.4zM4037.5 250.8v-139h25.2v139h-25.2z"/></g><path class="st0" d="M1857 0h4.5v400h-4.5z"/></svg>